# xmcd
# 
# Track frame offsets:
#     150
#     15385
#     34297
#     49532
#     68444
# 
# Disc length: 1711
# 
# Revision: 0
# Processed by: cddbd v1.5.2PL0 Copyright (c) Steve Scherf et al.
# Submitted via: fre:ac v1.0.17
# 
DISCID=3106ad05
DTITLE=赤ちょこ - 君色果実
DYEAR=2016
DGENRE=JPop
TTITLE0=君色果実
TTITLE1=進め明日へ!!
TTITLE2=君色果実 off vocal ver.
TTITLE3=進め明日へ!! off vocal ver.
TTITLE4=ちょこっとラジオ (自己紹介編)
EXTD=
EXTT0=
EXTT1=
EXTT2=
EXTT3=
EXTT4=
PLAYORDER=
